<!--?xml version="1.0" standalone="no"?-->
<svg version="1.0" xmlns="http://www.w3.org/2000/svg" width="300.000000pt" height="300.000000pt" viewBox="0 0 300.000000 300.000000" preserveAspectRatio="xMidYMid meet">
<g transform="translate(0.000000,300.000000) scale(0.100000,-0.100000)" fill="#070707" stroke="none">
<path d="M493 2298 c-47 -15 -100 -75 -115 -130 -36 -138 91 -266 228 -230 145 39 192 213 85 315 -56 54 -123 69 -198 45z" id="node1" class="node"/>
<path d="M2501 2265 c-131 -41 -175 -207 -82 -309 87 -96 265 -63 310 57 14 36 14 108 0 144 -32 86 -138 136 -228 108z" id="node2" class="node"/>
<path d="M395 1893 c-66 -34 -170 -158 -213 -253 -44 -97 -82 -242 -82 -312 0 -26 36 -58 65 -58 42 0 71 38 78 103 10 82 69 247 88 247 5 0 9 -205 9 -465 0 -319 3 -472 11 -488 19 -42 78 -59 122 -35 46 24 46 29 47 315 l0 273 25 6 c53 13 55 5 55 -286 0 -304 1 -307 76 -317 33 -4 45 -1 70 20 l29 25 3 459 c1 252 5 465 8 473 4 11 9 9 19 -11 28 -53 65 -163 75 -223 14 -90 71 -125 121 -75 19 19 21 28 15 83 -20 179 -153 418 -281 506 -43 30 -45 30 -177 30 -101 -1 -140 -5 -163 -17z" id="node3" class="node"/>
<path d="M2434 1862 c-93 -51 -210 -248 -240 -405 -22 -113 -15 -141 39 -145 43 -4 46 1 72 118 19 85 54 172 65 165 4 -3 11 -38 14 -78 7 -68 4 -86 -44 -262 -64 -235 -69 -257 -70 -272 0 -8 22 -13 63 -15 l62 -3 3 -151 c2 -136 4 -153 22 -169 23 -21 75 -24 93 -6 8 8 14 65 17 169 5 149 6 157 25 157 19 0 20 -8 25 -157 3 -95 9 -161 16 -168 18 -18 72 -15 94 5 17 16 20 33 22 169 l3 151 64 3 c63 3 63 3 58 30 -5 25 -83 314 -106 392 -12 37 -3 200 10 200 14 0 47 -87 64 -172 20 -96 27 -108 66 -108 47 0 62 25 54 89 -16 136 -71 264 -162 378 -72 91 -96 102 -208 102 -66 0 -98 -4 -121 -17z" id="node4" class="node"/>
<path d="M1221 1788 c-73 -50 -98 -116 -76 -201 16 -61 55 -101 117 -117 76 -21 142 1 192 63 27 34 31 46 31 100 -1 109 -58 169 -164 175 -56 3 -71 0 -100 -20z" id="node5" class="node"/>
<path d="M1850 1708 c-78 -54 -101 -144 -58 -228 64 -123 254 -115 303 14 47 122 -28 236 -155 236 -43 0 -65 -6 -90 -22z" id="node6" class="node"/>
<path d="M1169 1415 c-70 -46 -116 -117 -143 -222 -27 -104 -19 -143 31 -143 27 0 32 12 57 115 10 39 24 77 32 85 12 12 14 -26 14 -286 0 -279 1 -302 18 -317 22 -20 75 -22 91 -4 6 8 12 75 13 168 l3 154 25 0 25 0 5 -158 c5 -170 8 -177 61 -177 57 0 59 9 59 328 0 161 3 292 8 292 11 0 40 -78 51 -134 11 -61 41 -82 80 -57 22 14 7 119 -27 193 -33 72 -70 119 -126 159 -37 27 -44 29 -140 28 -89 0 -105 -3 -137 -24z" id="node7" class="node"/>
<path d="M1812 1345 c-75 -42 -121 -114 -146 -222 -17 -78 -14 -99 16 -109 29 -9 42 11 62 88 10 37 24 75 32 85 12 17 13 16 13 -12 1 -16 -6 -79 -14 -140 -21 -153 -20 -164 10 -175 24 -9 25 -12 25 -104 0 -99 10 -126 49 -126 37 0 50 31 53 130 3 94 3 95 28 95 25 0 25 -1 30 -103 5 -106 12 -121 52 -122 37 0 48 27 48 126 0 92 1 95 25 104 30 11 31 36 10 185 -17 119 -18 135 -5 135 5 0 19 -33 31 -72 25 -84 38 -103 67 -94 30 10 34 31 15 104 -25 101 -67 166 -142 220 -41 30 -49 32 -130 32 -73 0 -93 -4 -129 -25z" id="node8" class="node"/>
</g>
<g transform="translate(0.000000,300.000000) scale(0.100000,-0.100000)" fill="#9D9D9D" stroke="none">

</g>
</svg>